<svg xmlns="http://www.w3.org/2000/svg" width="1600" height="900" viewBox="0 0 1600 900">
  <defs>
    <linearGradient id="bg" x1="0" y1="0" x2="1" y2="1">
      <stop offset="0" stop-color="#020617"/>
      <stop offset="0.55" stop-color="#0f172a"/>
      <stop offset="1" stop-color="#1e293b"/>
    </linearGradient>
    <linearGradient id="accent" x1="0" y1="0" x2="1" y2="0">
      <stop offset="0" stop-color="#10b981"/>
      <stop offset="0.55" stop-color="#3b82f6"/>
      <stop offset="1" stop-color="#8b5cf6"/>
    </linearGradient>
    <filter id="glow" x="-50%" y="-50%" width="200%" height="200%">
      <feGaussianBlur stdDeviation="14" result="blur"/>
      <feColorMatrix in="blur" type="matrix" values="1 0 0 0 0  0 1 0 0 0  0 0 1 0 0  0 0 0 0.55 0" result="g"/>
      <feMerge>
        <feMergeNode in="g"/>
        <feMergeNode in="SourceGraphic"/>
      </feMerge>
    </filter>
  </defs>

  <rect width="1600" height="900" fill="url(#bg)"/>

  <g opacity="0.26">
    <circle cx="280" cy="260" r="220" fill="#10b981"/>
    <circle cx="360" cy="330" r="220" fill="#3b82f6" opacity="0.7"/>
    <circle cx="1320" cy="240" r="240" fill="#8b5cf6" opacity="0.55"/>
  </g>

  <g filter="url(#glow)">
    <rect x="160" y="220" width="1280" height="480" rx="36" fill="#0b1220" stroke="#ffffff" stroke-opacity="0.14"/>

    <g opacity="0.35">
      <path d="M240 620 H 1360" stroke="#ffffff" stroke-width="1"/>
      <path d="M240 550 H 1360" stroke="#ffffff" stroke-width="1"/>
      <path d="M240 480 H 1360" stroke="#ffffff" stroke-width="1"/>
      <path d="M240 410 H 1360" stroke="#ffffff" stroke-width="1"/>
      <path d="M240 340 H 1360" stroke="#ffffff" stroke-width="1"/>
    </g>

    <path d="M260 610 C 340 520, 430 560, 520 470 S 720 520, 820 420 S 1040 470, 1160 360 S 1300 420, 1380 320" fill="none" stroke="url(#accent)" stroke-width="12" stroke-linecap="round"/>

    <g>
      <circle cx="260" cy="610" r="10" fill="#10b981"/>
      <circle cx="520" cy="470" r="10" fill="#3b82f6"/>
      <circle cx="820" cy="420" r="10" fill="#8b5cf6"/>
      <circle cx="1160" cy="360" r="10" fill="#10b981"/>
      <circle cx="1380" cy="320" r="10" fill="#3b82f6"/>
    </g>

    <g opacity="0.9">
      <rect x="240" y="270" width="360" height="70" rx="16" fill="#111827" stroke="#ffffff" stroke-opacity="0.10"/>
      <text x="270" y="315" fill="#ffffff" font-family="Inter, system-ui" font-size="20" font-weight="600">Energy Controller</text>

      <rect x="620" y="270" width="260" height="70" rx="16" fill="#111827" stroke="#ffffff" stroke-opacity="0.10"/>
      <text x="650" y="315" fill="#cbd5e1" font-family="Inter, system-ui" font-size="18">Telemetry</text>

      <rect x="900" y="270" width="300" height="70" rx="16" fill="#111827" stroke="#ffffff" stroke-opacity="0.10"/>
      <text x="930" y="315" fill="#cbd5e1" font-family="Inter, system-ui" font-size="18">Optimization</text>
    </g>
  </g>

  <g opacity="0.9">
    <text x="160" y="170" fill="#ffffff" font-family="Inter, system-ui, -apple-system, Segoe UI, Roboto, Arial" font-size="34" font-weight="700">Smart Energy</text>
    <text x="160" y="205" fill="#cbd5e1" font-family="Inter, system-ui" font-size="18">Placeholder image (edit later)</text>
  </g>
</svg>
