<svg xmlns="http://www.w3.org/2000/svg" width="1600" height="900" viewBox="0 0 1600 900">
  <defs>
    <linearGradient id="bg" x1="0" y1="0" x2="1" y2="1">
      <stop offset="0" stop-color="#020617"/>
      <stop offset="0.55" stop-color="#0f172a"/>
      <stop offset="1" stop-color="#1e293b"/>
    </linearGradient>
    <linearGradient id="accent" x1="0" y1="0" x2="1" y2="0">
      <stop offset="0" stop-color="#3b82f6"/>
      <stop offset="0.5" stop-color="#8b5cf6"/>
      <stop offset="1" stop-color="#10b981"/>
    </linearGradient>
    <filter id="glow" x="-50%" y="-50%" width="200%" height="200%">
      <feGaussianBlur stdDeviation="12" result="blur"/>
      <feColorMatrix in="blur" type="matrix" values="1 0 0 0 0  0 1 0 0 0  0 0 1 0 0  0 0 0 0.55 0" result="g"/>
      <feMerge>
        <feMergeNode in="g"/>
        <feMergeNode in="SourceGraphic"/>
      </feMerge>
    </filter>
  </defs>

  <rect width="1600" height="900" fill="url(#bg)"/>

  <g opacity="0.18">
    <path d="M0 260 C 320 180, 520 320, 820 240 S 1220 220, 1600 140 V 0 H 0 Z" fill="#3b82f6"/>
    <path d="M0 340 C 340 260, 560 380, 880 300 S 1260 280, 1600 200" fill="none" stroke="url(#accent)" stroke-width="10" stroke-linecap="round" opacity="0.9"/>
  </g>

  <g filter="url(#glow)">
    <rect x="140" y="200" width="1320" height="520" rx="36" fill="#0b1220" stroke="#ffffff" stroke-opacity="0.14"/>

    <rect x="180" y="240" width="360" height="440" rx="28" fill="#111827" stroke="#ffffff" stroke-opacity="0.10"/>
    <rect x="220" y="290" width="280" height="18" rx="9" fill="#1f2937"/>
    <rect x="220" y="330" width="220" height="18" rx="9" fill="#1f2937" opacity="0.85"/>
    <rect x="220" y="370" width="260" height="18" rx="9" fill="#1f2937" opacity="0.75"/>
    <rect x="220" y="410" width="200" height="18" rx="9" fill="#1f2937" opacity="0.65"/>

    <rect x="580" y="240" width="840" height="200" rx="28" fill="#111827" stroke="#ffffff" stroke-opacity="0.10"/>
    <path d="M640 410 C 740 330, 820 420, 920 350 S 1100 390, 1200 320 S 1340 360, 1360 300" fill="none" stroke="url(#accent)" stroke-width="10" stroke-linecap="round"/>

    <rect x="580" y="480" width="410" height="200" rx="28" fill="#111827" stroke="#ffffff" stroke-opacity="0.10"/>
    <rect x="1010" y="480" width="410" height="200" rx="28" fill="#111827" stroke="#ffffff" stroke-opacity="0.10"/>

    <g opacity="0.9">
      <rect x="620" y="520" width="330" height="18" rx="9" fill="#1f2937"/>
      <rect x="620" y="555" width="290" height="18" rx="9" fill="#1f2937" opacity="0.85"/>
      <rect x="620" y="590" width="250" height="18" rx="9" fill="#1f2937" opacity="0.7"/>

      <rect x="1050" y="520" width="320" height="18" rx="9" fill="#1f2937"/>
      <rect x="1050" y="555" width="270" height="18" rx="9" fill="#1f2937" opacity="0.85"/>
      <rect x="1050" y="590" width="230" height="18" rx="9" fill="#1f2937" opacity="0.7"/>
    </g>
  </g>

  <g opacity="0.9">
    <text x="160" y="170" fill="#ffffff" font-family="Inter, system-ui, -apple-system, Segoe UI, Roboto, Arial" font-size="34" font-weight="700">Operations Dashboard</text>
    <text x="160" y="205" fill="#cbd5e1" font-family="Inter, system-ui" font-size="18">Placeholder image (edit later)</text>
  </g>
</svg>
