<svg xmlns="http://www.w3.org/2000/svg" width="1600" height="900" viewBox="0 0 1600 900">
  <defs>
    <linearGradient id="bg" x1="0" y1="0" x2="1" y2="1">
      <stop offset="0" stop-color="#020617"/>
      <stop offset="0.55" stop-color="#0f172a"/>
      <stop offset="1" stop-color="#1e293b"/>
    </linearGradient>
    <linearGradient id="accent" x1="0" y1="0" x2="1" y2="0">
      <stop offset="0" stop-color="#3b82f6"/>
      <stop offset="0.5" stop-color="#10b981"/>
      <stop offset="1" stop-color="#8b5cf6"/>
    </linearGradient>
    <filter id="glow" x="-50%" y="-50%" width="200%" height="200%">
      <feGaussianBlur stdDeviation="16" result="blur"/>
      <feColorMatrix in="blur" type="matrix" values="1 0 0 0 0  0 1 0 0 0  0 0 1 0 0  0 0 0 0.55 0" result="g"/>
      <feMerge>
        <feMergeNode in="g"/>
        <feMergeNode in="SourceGraphic"/>
      </feMerge>
    </filter>
  </defs>

  <rect width="1600" height="900" fill="url(#bg)"/>

  <g opacity="0.35">
    <path d="M0 720 C 260 620, 380 820, 640 720 S 1120 620, 1600 720 V 900 H 0 Z" fill="#3b82f6"/>
    <path d="M0 760 C 320 660, 420 860, 720 760 S 1200 660, 1600 760 V 900 H 0 Z" fill="#10b981" opacity="0.45"/>
  </g>

  <g opacity="0.22">
    <path d="M120 170 H 1480" stroke="#ffffff" stroke-width="1"/>
    <path d="M120 260 H 1480" stroke="#ffffff" stroke-width="1"/>
    <path d="M120 350 H 1480" stroke="#ffffff" stroke-width="1"/>
    <path d="M120 440 H 1480" stroke="#ffffff" stroke-width="1"/>
    <path d="M120 530 H 1480" stroke="#ffffff" stroke-width="1"/>
    <path d="M120 620 H 1480" stroke="#ffffff" stroke-width="1"/>
  </g>

  <g filter="url(#glow)">
    <rect x="140" y="210" width="520" height="330" rx="28" fill="#0b1220" stroke="#ffffff" stroke-opacity="0.14"/>
    <rect x="175" y="250" width="450" height="40" rx="12" fill="#111827" stroke="#ffffff" stroke-opacity="0.10"/>
    <rect x="175" y="310" width="320" height="20" rx="10" fill="#111827"/>
    <rect x="175" y="342" width="260" height="20" rx="10" fill="#111827" opacity="0.8"/>
    <rect x="175" y="374" width="220" height="20" rx="10" fill="#111827" opacity="0.65"/>

    <rect x="760" y="180" width="700" height="420" rx="32" fill="#0b1220" stroke="#ffffff" stroke-opacity="0.14"/>
    <path d="M820 520 C 920 430, 1040 570, 1160 460 S 1360 500, 1400 410" fill="none" stroke="url(#accent)" stroke-width="10" stroke-linecap="round"/>

    <circle cx="820" cy="520" r="10" fill="#3b82f6"/>
    <circle cx="1020" cy="560" r="10" fill="#10b981"/>
    <circle cx="1160" cy="460" r="10" fill="#8b5cf6"/>
    <circle cx="1400" cy="410" r="10" fill="#3b82f6"/>
  </g>

  <g opacity="0.9">
    <text x="160" y="170" fill="#ffffff" font-family="Inter, system-ui, -apple-system, Segoe UI, Roboto, Arial" font-size="34" font-weight="700">Remote Monitoring</text>
    <text x="160" y="205" fill="#cbd5e1" font-family="Inter, system-ui" font-size="18">Placeholder image (edit later)</text>
  </g>
</svg>
